<svg width="422" height="338" viewBox="0 0 422 338" fill="none" xmlns="http://www.w3.org/2000/svg">
<path d="M260.604 107.063C273.363 102.617 286.781 100.356 300.292 100.375C313.917 100.375 327.021 102.646 339.25 106.813M339.25 106.813C385.875 122.75 419.333 166.521 419.333 218.021C419.333 283 366.042 335.667 300.292 335.667H91.9583C42.6458 335.667 2.66669 296.167 2.66669 247.438C2.66669 198.708 42.6458 159.208 91.9583 159.188C97.7623 159.188 103.553 159.746 109.25 160.854M339.25 106.813C332.604 48.0418 282.167 2.3335 220.917 2.3335C155.167 2.3335 101.875 55.0002 101.875 119.979C101.858 133.937 104.357 147.783 109.25 160.854M109.25 160.854C120.777 163.093 131.75 167.581 141.542 174.063" stroke="#333333" stroke-width="4.17" stroke-linecap="round"/>
</svg>
