<svg width="430" height="394" viewBox="0 0 430 394" fill="none" xmlns="http://www.w3.org/2000/svg">
<path d="M147.336 87.1519L149.336 87.7067L149.899 85.709C156.647 61.8003 171.018 40.7495 190.827 25.758C210.637 10.7665 234.8 2.65467 259.643 2.65629C281.985 2.65772 303.835 9.22533 322.476 21.5428C341.117 33.8602 355.726 51.3843 364.489 71.9369C373.252 92.4895 375.782 115.164 371.763 137.143C367.745 159.121 357.356 179.434 341.888 195.556L340.504 196.999L341.888 198.443C353.873 210.945 362.852 226.014 368.142 242.505C373.433 258.997 374.896 276.477 372.42 293.618C369.944 310.76 363.595 327.111 353.854 341.432C344.114 355.752 331.238 367.665 316.205 376.265C301.172 384.865 284.376 389.926 267.095 391.064C249.813 392.202 232.499 389.388 216.468 382.833C200.437 376.279 186.11 366.158 174.575 353.239C163.041 340.319 154.602 324.942 149.9 308.273L149.336 306.275L147.336 306.83C130.406 311.526 112.62 312.245 95.3671 308.931C78.1138 305.617 61.8601 298.36 47.8751 287.726C33.8901 277.092 22.5524 263.37 14.7474 247.63C6.94245 231.89 2.88139 214.56 2.88139 196.991C2.88139 179.422 6.94245 162.091 14.7474 146.352C22.5524 130.612 33.8901 116.889 47.8751 106.256C61.8601 95.6218 78.1138 88.3645 95.3671 85.0507C112.62 81.7368 130.406 82.4559 147.336 87.1519ZM169.094 104.382L169.094 104.382C168.861 106.117 168.228 107.774 167.245 109.223C166.262 110.672 164.956 111.872 163.43 112.73C161.904 113.588 160.199 114.08 158.451 114.167C156.702 114.255 154.958 113.935 153.354 113.233L153.351 113.231C139.446 107.175 124.253 104.674 109.142 105.956C94.0298 107.237 79.4747 112.26 66.7889 120.571C54.1031 128.883 43.6856 140.221 36.4759 153.564C29.2663 166.906 25.4912 181.834 25.4912 197C25.4912 212.166 29.2663 227.093 36.4759 240.436C43.6856 253.779 54.1031 265.117 66.7889 273.428C79.4747 281.739 94.0298 286.762 109.142 288.044C124.253 289.325 139.446 286.825 153.351 280.768L153.353 280.767C154.958 280.065 156.704 279.746 158.454 279.834C160.203 279.922 161.908 280.415 163.435 281.275C164.961 282.134 166.266 283.337 167.249 284.787C168.231 286.237 168.862 287.896 169.094 289.633L169.095 289.637C171.105 304.444 176.716 318.531 185.435 330.665C194.155 342.799 205.717 352.61 219.109 359.237C232.501 365.864 247.314 369.106 262.25 368.678C277.185 368.251 291.789 364.167 304.78 356.784C317.77 349.402 328.752 338.946 336.763 326.333C344.775 313.72 349.57 299.334 350.73 284.437C351.89 269.54 349.378 254.586 343.416 240.885C337.454 227.184 328.222 215.155 316.53 205.851L316.53 205.85C315.198 204.791 314.123 203.445 313.384 201.913C312.644 200.381 312.261 198.701 312.261 197C312.261 195.298 312.644 193.619 313.384 192.087C314.123 190.554 315.198 189.209 316.53 188.15C328.233 178.847 337.474 166.815 343.445 153.109C349.416 139.404 351.933 124.442 350.776 109.537C349.618 94.6323 344.822 80.2387 336.808 67.6186C328.794 54.9985 317.806 44.5372 304.807 37.1519C291.809 29.7667 277.197 25.683 262.254 25.2589C247.31 24.8348 232.49 28.0833 219.094 34.7196C205.698 41.3558 194.134 51.1771 185.417 63.3224C176.7 75.4678 171.095 89.5662 169.094 104.382ZM123.629 18.4284C123.629 22.6115 121.968 26.6232 119.01 29.581C116.052 32.5389 112.04 34.2006 107.857 34.2006C103.674 34.2006 99.6624 32.5389 96.7046 29.581C93.7467 26.6232 92.085 22.6115 92.085 18.4284C92.085 14.2454 93.7467 10.2337 96.7046 7.27584C99.6624 4.31799 103.674 2.65629 107.857 2.65629C112.04 2.65629 116.052 4.31799 119.01 7.27584C121.968 10.2337 123.629 14.2454 123.629 18.4284ZM422.581 208.152C419.623 211.11 415.612 212.772 411.429 212.772C407.246 212.772 403.234 211.11 400.276 208.152C397.318 205.195 395.656 201.183 395.656 197C395.656 192.817 397.318 188.805 400.276 185.847C403.234 182.889 407.246 181.228 411.429 181.228C415.612 181.228 419.623 182.889 422.581 185.847C425.539 188.805 427.201 192.817 427.201 197C427.201 201.183 425.539 205.195 422.581 208.152ZM119.01 386.724C116.052 389.682 112.04 391.343 107.857 391.343C103.674 391.343 99.6624 389.682 96.7046 386.724C93.7467 383.766 92.085 379.754 92.085 375.571C92.085 371.388 93.7467 367.376 96.7046 364.419C99.6624 361.461 103.674 359.799 107.857 359.799C112.04 359.799 116.052 361.461 119.01 364.419C121.968 367.376 123.629 371.388 123.629 375.571C123.629 379.754 121.968 383.766 119.01 386.724Z" stroke="#333333" stroke-width="4.17"/>
</svg>
