<svg width="100" height="100" viewBox="0 0 100 100" fill="none" xmlns="http://www.w3.org/2000/svg">
<path d="M37.4059 67.8033C37.2073 68.664 38.1404 69.3407 38.8968 68.8845L49.4801 62.5009C49.7995 62.3082 50.1997 62.3094 50.518 62.5039L61.0982 68.9696C61.8536 69.4312 62.7922 68.7559 62.5944 67.8929L59.8218 55.7944C59.7391 55.4337 59.8625 55.0568 60.1424 54.8147L69.4657 46.7513C70.1335 46.1737 69.7797 45.0772 68.9002 44.9989L56.6379 43.9071C56.2708 43.8744 55.9514 43.6424 55.8068 43.3033L50.9164 31.8362C50.5714 31.0271 49.425 31.0256 49.0778 31.8338L44.1939 43.2014C44.0488 43.5392 43.73 43.7701 43.3638 43.8027L31.0831 44.8962C30.206 44.9743 29.8507 46.0659 30.5137 46.6453L39.8614 54.814C40.1391 55.0566 40.2607 55.4325 40.1778 55.7918L37.4059 67.8033ZM32.5499 77.6212C31.7926 78.0782 30.8584 77.3992 31.0594 76.5377L35.5503 57.296C35.6346 56.9345 35.5118 56.556 35.2312 56.3129L20.2953 43.373C19.6274 42.7943 19.9835 41.6971 20.8639 41.6209L40.5382 39.9183C40.9069 39.8864 41.2279 39.6535 41.3725 39.3128L49.0796 21.1557C49.4244 20.3434 50.5757 20.3433 50.9205 21.1556L58.6274 39.3087C58.772 39.6493 59.093 39.8823 59.4617 39.9142L79.1323 41.6168C80.0127 41.693 80.3688 42.7901 79.7009 43.3688L64.7686 56.3087C64.4881 56.5518 64.3653 56.9303 64.4496 57.2917L68.9406 76.5341C69.1416 77.3954 68.2076 78.0745 67.4503 77.6176L50.5166 67.4031C50.1988 67.2114 49.8011 67.2115 49.4834 67.4032L32.5499 77.6212Z" fill="#333333"/>
</svg>
