<svg width="380" height="256" viewBox="0 0 380 256" fill="none" xmlns="http://www.w3.org/2000/svg">
<path d="M58.75 60.7083L166.562 29.1042C181.866 24.6191 198.134 24.6191 213.438 29.1042L321.25 60.6875M321.25 60.6875V118.396M321.25 60.6875V31.125C321.25 23.6658 324.213 16.5121 329.488 11.2376C334.762 5.96316 341.916 3 349.375 3C356.834 3 363.988 5.96316 369.262 11.2376C374.537 16.5121 377.5 23.6658 377.5 31.125V76.7083C377.5 87.759 373.11 98.3571 365.296 106.171C357.482 113.985 346.884 118.375 335.833 118.375L321.25 118.396M58.75 118.375H44.1667C33.116 118.375 22.5179 113.985 14.7039 106.171C6.88987 98.3571 2.5 87.759 2.5 76.7083V31.125C2.5 23.6658 5.46316 16.5121 10.7376 11.2376C16.0121 5.96316 23.1658 3 30.625 3C38.0842 3 45.2379 5.96316 50.5124 11.2376C55.7868 16.5121 58.75 23.6658 58.75 31.125V60.6875V118.375ZM58.75 118.375V121.75C58.75 138.986 62.1449 156.053 68.7408 171.977C75.3367 187.901 85.0045 202.37 97.1922 214.558C109.38 226.745 123.849 236.413 139.773 243.009C155.697 249.605 172.764 253 190 253C207.236 253 224.303 249.605 240.227 243.009C256.151 236.413 270.62 226.745 282.808 214.558C294.995 202.37 304.663 187.901 311.259 171.977C317.855 156.053 321.25 138.986 321.25 121.75V118.396" stroke="#333333" stroke-width="4.17" stroke-linecap="round" stroke-linejoin="round"/>
</svg>
